<svg width="22" height="22" viewBox="0 0 22 22" fill="none" xmlns="http://www.w3.org/2000/svg">
<g filter="url(#filter0_b_3_225)">
<path d="M2 11.9999C2 6.4856 6.4856 2 11.9999 2C17.5142 2 21.9998 6.4856 21.9998 11.9999C21.9998 17.5142 17.5142 21.9998 11.9999 21.9998C6.4856 21.9998 2 17.5142 2 11.9999ZM3.4481 11.9999C3.4481 16.7159 7.2848 20.5526 11.9999 20.5526C16.7159 20.5526 20.5526 16.7159 20.5526 11.9999C20.5526 7.2848 16.7159 3.4481 11.9999 3.4481C7.2848 3.4481 3.4481 7.2848 3.4481 11.9999ZM8.1902 15.6521C8.0534 15.4658 8.0147 15.2309 8.0849 15.0086L9.6221 10.0964C9.6932 9.8705 9.8705 9.6932 10.0964 9.6221L15.0086 8.0849C15.0806 8.0624 15.1553 8.0507 15.2282 8.0507C15.455 8.0507 15.6728 8.1623 15.8096 8.3486C15.9464 8.5349 15.9851 8.7689 15.9158 8.9921L14.3786 13.9034C14.3075 14.1293 14.1293 14.3075 13.9034 14.3786L8.9921 15.9158C8.9192 15.9383 8.8454 15.95 8.7716 15.95C8.5448 15.95 8.3279 15.8384 8.1902 15.6521ZM10.8902 10.8902L9.8786 14.1203L13.1096 13.1096L14.1203 9.8786L10.8902 10.8902Z" fill="#200E32"/>
</g>
<path d="M7 3.34976V7.50006H10.9561" stroke="#200E32" stroke-linecap="round"/>
<defs>
<filter id="filter0_b_3_225" x="-7.98147" y="-7.98147" width="39.9627" height="39.9627" filterUnits="userSpaceOnUse" color-interpolation-filters="sRGB">
<feFlood flood-opacity="0" result="BackgroundImageFix"/>
<feGaussianBlur in="BackgroundImageFix" stdDeviation="4.99073"/>
<feComposite in2="SourceAlpha" operator="in" result="effect1_backgroundBlur_3_225"/>
<feBlend mode="normal" in="SourceGraphic" in2="effect1_backgroundBlur_3_225" result="shape"/>
</filter>
</defs>
</svg>
